<svg width="92" height="183" viewBox="0 0 92 183" fill="none" xmlns="http://www.w3.org/2000/svg">
<path d="M0.499992 7.08001C0.499992 3.16983 3.67487 -0.028527 7.57337 0.273597C29.2527 1.95369 49.7157 11.3152 65.2003 26.7997C82.3598 43.9593 92 67.2327 92 91.5C92 115.767 82.3599 139.041 65.2003 156.2C49.7157 171.685 29.2527 181.046 7.57339 182.726C3.67489 183.029 0.500013 179.83 0.500012 175.92V175.92C0.500012 172.01 3.67689 168.874 7.57071 168.516C25.4894 166.872 42.3597 159.016 55.1876 146.188C69.6917 131.684 77.84 112.012 77.84 91.5C77.84 70.9882 69.6917 51.3164 55.1876 36.8124C42.3596 23.9844 25.4893 16.1281 7.57069 14.4837C3.67687 14.1264 0.499992 10.9902 0.499992 7.08001V7.08001Z" fill="#18D707"/>
</svg>
