<svg width="115" height="108" viewBox="0 0 115 108" fill="none" xmlns="http://www.w3.org/2000/svg">
<path d="M111.843 53.0679L63.1652 4.4158L59.9024 1.153C59.159 0.414485 58.1536 0 57.1057 0C56.0578 0 55.0524 0.414485 54.309 1.153L2.36888 53.0679C1.60711 53.8267 1.00508 54.7305 0.598308 55.7257C0.191537 56.721 -0.0117237 57.7877 0.000522169 58.8629C0.0509128 63.2972 3.74203 66.8372 8.1764 66.8372H13.5304V107.868H100.681V66.8372H106.148C108.303 66.8372 110.331 65.9931 111.855 64.4688C112.606 63.7207 113.2 62.831 113.605 61.8515C114.009 60.8719 114.215 59.8218 114.211 58.7621C114.211 56.6205 113.367 54.5923 111.843 53.0679ZM64.1604 98.7974H50.051V73.0982H64.1604V98.7974ZM91.6107 57.7669V98.7974H72.2229V70.0748C72.2229 67.2907 69.9679 65.0357 67.1838 65.0357H47.0276C44.2435 65.0357 41.9885 67.2907 41.9885 70.0748V98.7974H22.6007V57.7669H10.507L57.1183 11.1933L60.0284 14.1034L103.717 57.7669H91.6107Z" fill="#18D707"/>
</svg>
