<svg width="129" height="129" viewBox="0 0 129 129" fill="none" xmlns="http://www.w3.org/2000/svg">
<path d="M119.237 63.6182L70.5595 14.9661L67.2967 11.7033C66.5532 10.9648 65.5479 10.5503 64.5 10.5503C63.4521 10.5503 62.4467 10.9648 61.7033 11.7033L9.76317 63.6182C9.0014 64.377 8.39937 65.2807 7.99259 66.276C7.58582 67.2713 7.38256 68.338 7.39481 69.4132C7.4452 73.8475 11.1363 77.3875 15.5707 77.3875H20.9247V118.418H108.075V77.3875H113.543C115.697 77.3875 117.725 76.5434 119.249 75.0191C120 74.271 120.595 73.3813 120.999 72.4018C121.403 71.4222 121.609 70.3721 121.605 69.3124C121.605 67.1708 120.761 65.1426 119.237 63.6182ZM71.5547 109.348H57.4453V83.6485H71.5547V109.348ZM99.005 68.3172V109.348H79.6172V80.6251C79.6172 77.841 77.3622 75.586 74.5781 75.586H54.4219C51.6378 75.586 49.3828 77.841 49.3828 80.6251V109.348H29.995V68.3172H17.9013L64.5126 21.7436L67.4226 24.6537L111.111 68.3172H99.005Z" fill="#F8F8F8"/>
</svg>
