<svg width="117" height="110" viewBox="0 0 117 110" fill="none" xmlns="http://www.w3.org/2000/svg">
<path d="M113.196 53.7143L113.196 53.7144C114.813 55.3317 115.711 57.4868 115.711 59.7621M113.196 53.7143L115.211 59.7621M113.196 53.7143L64.5187 5.06224L64.5186 5.06215L61.2559 1.79945L61.2548 1.79828M113.196 53.7143L61.2548 1.79828M115.711 59.7621H115.211M115.711 59.7621C115.711 59.7614 115.711 59.7607 115.711 59.7601L115.211 59.7621M115.711 59.7621C115.715 60.8873 115.496 62.0022 115.067 63.0423C114.637 64.083 114.006 65.0281 113.208 65.8229M115.211 59.7621C115.215 60.8218 115.009 61.8719 114.605 62.8515C114.2 63.831 113.606 64.7207 112.855 65.4688M113.208 65.8229C113.208 65.8228 113.208 65.8226 113.209 65.8224L112.855 65.4688M113.208 65.8229L112.855 65.4688M113.208 65.8229L112.855 65.4688M61.2548 1.79828C60.4177 0.96671 59.2856 0.5 58.1057 0.5C56.9258 0.5 55.7937 0.96671 54.9566 1.79828L54.9556 1.79936M61.2548 1.79828L54.9556 1.79936M54.9556 1.79936L3.01602 53.7137L54.9556 1.79936ZM101.681 67.8372H102.181V68.3372H101.681V67.8372ZM14.0304 68.3372H14.5304V67.8372H14.0304V68.3372ZM92.6107 58.2669H92.1107V58.7669V99.2974H73.7229V71.0748C73.7229 68.0145 71.244 65.5357 68.1838 65.5357H48.0276C44.9673 65.5357 42.4885 68.0145 42.4885 71.0748V99.2974H24.1007V58.7669V58.2669H23.6007H12.7148L58.1181 12.9003L60.6748 15.4569L60.6749 15.457L103.509 58.2669H92.6107ZM51.551 99.2974V74.5982H64.6604V99.2974H51.551Z" fill="#18D707" stroke="#18D707"/>
</svg>
