<svg width="306" height="223" viewBox="0 0 306 223" fill="none" xmlns="http://www.w3.org/2000/svg">
<path d="M263.367 202.5L229.367 207M263.367 202.5C266.368 193.225 269.859 177.812 271.732 159M263.367 202.5L302.367 200.5C302.367 197.889 300.967 192.833 295.367 193.5L274.367 196C290.367 163.6 279.277 157.833 271.732 159M229.367 207C233.367 208.333 241.467 212.5 241.867 218.5C217.621 215.111 199.705 215.219 188.367 216.306M229.367 207H215.299M204.367 193.5C200.921 200.87 192.896 215.75 188.367 216.306M188.367 216.306C182.31 216.886 178.131 217.746 175.867 218.5V215.5C182.867 189.5 184.867 124.2 136.867 71C134.867 59.4 155.034 30.8333 165.367 18C167.575 16.9155 169.919 15.9223 172.367 15.0134M188.367 189C196.201 183.333 214.467 173.7 224.867 180.5C234.14 186.563 223.697 199.437 215.299 207M212.367 209.5C213.288 208.76 214.278 207.919 215.299 207M271.732 159C272.829 147.982 273.371 135.799 272.933 123M182.367 132.282C182.701 141.615 185.967 159.882 196.367 158.282C206.767 156.682 209.367 147.667 210.867 143C210.822 145.167 211.644 149.7 215.299 150.5C219.867 151.5 225.867 149 226.867 139.5C227.667 131.9 221.534 127.667 218.367 126.5C215.546 126.213 208.49 127.755 200.367 135.341M196.367 139.5C197.719 137.945 199.057 136.564 200.367 135.341M198.867 119.5C198.534 123.394 198.367 132.013 200.367 135.341M271.732 105.618C273.84 105.924 281.701 105.745 285.367 105.618C288.701 106.412 297.5 108.8 297.5 114C297.5 120.5 302 127.5 293.5 130C290.3 130 282.167 123.833 281.5 121C279.5 125 274.745 123.5 272.933 123M271.732 105.618C272.351 111.501 272.739 117.311 272.933 123M271.732 105.618C271.488 98.9119 270.8 85.3 270 84.5M123.867 27.5C133.534 23.1756 156.767 14.6241 172.367 15.0134M172.367 15.0134C195.202 6.53593 227.067 5.39784 241.367 5.99995C243.245 8.49994 247.3 14.3999 248.5 18M172.367 15.0134C165.567 7.82411 141.867 8.34226 130.867 9.5M172.367 15.0134C172.367 9.52679 158.867 3.5 153.367 3M258.5 52.5C260.167 55.3333 263.7 61.6 264.5 64" stroke="#18D707" stroke-width="6"/>
<path d="M202.367 52.5C202.367 60.4314 193.897 68 181.867 68C169.837 68 161.367 60.4314 161.367 52.5C161.367 44.5686 169.837 37 181.867 37C193.897 37 202.367 44.5686 202.367 52.5Z" stroke="#18D707" stroke-width="6"/>
<path d="M274.367 35.5C274.367 43.4314 265.897 51 253.867 51C241.837 51 233.367 43.4314 233.367 35.5C233.367 27.5686 241.837 20 253.867 20C265.897 20 274.367 27.5686 274.367 35.5Z" stroke="#18D707" stroke-width="6"/>
<path d="M248.367 84.5C244.867 90.6667 228.567 103.1 191.367 97.5001C190.367 95.8853 188.967 92.2247 191.367 90.5001C201.367 85.3001 216.867 54.3334 223.367 39.5001C226.567 35.5001 242.367 58.8334 249.867 71.0001M248.367 84.5C282.767 86.5 296.034 78.3333 298.367 74C299.7 70.6667 299.967 63.3 290.367 60.5C280.767 57.7 254.367 68.3333 242.367 74M248.367 84.5C236.911 86.5 214.7 82.3 215.5 77.5M29.0662 167C38.4998 174.247 58.1671 193.218 61.3671 211.121M29.0662 167C36.7176 160.459 45.3299 154.367 54.3671 150.019M29.0662 167C22.3056 172.78 16.2952 178.91 11.4047 184.5M61.3671 211.121C50.0063 210.203 39.3682 209.035 30.3671 207.562M61.3671 211.121C65.4544 211.451 69.6353 211.749 73.8671 212.017M54.3671 150.019C63.4525 145.647 72.9673 143.036 82.3671 143.5C84.4806 143.604 86.651 143.789 88.8671 144.045M54.3671 150.019C66.0338 162.597 90.5671 192.827 95.3671 213.126M95.3671 213.126C88.1909 212.832 80.9575 212.466 73.8671 212.017M95.3671 213.126C104.783 213.513 114.101 213.776 122.867 213.944M88.8671 144.045C102.2 163.727 128.867 205.282 128.867 214.046M88.8671 144.045C100.019 145.335 112.327 148.444 124.367 152.342M128.867 214.046C140.481 214.217 150.868 214.222 158.867 214.13M128.867 214.046C126.9 214.017 124.899 213.983 122.867 213.944M124.367 152.342C135.867 171.482 158.867 210.635 158.867 214.13M124.367 152.342C108.367 146.569 42.3922 171.375 11.4047 184.5M124.367 152.342C133.384 155.261 142.25 158.622 150.367 161.99M158.867 214.13C168.556 214.02 174.742 213.768 175.367 213.5C176.591 212.976 177.477 207.977 178.101 201.5M155.867 164.322C162.856 175.548 177.088 198.7 178.101 201.5M155.867 164.322C154.079 163.548 152.243 162.769 150.367 161.99M155.867 164.322C162.249 167.084 168.028 169.783 172.867 172.176M178.101 201.5C178.515 197.194 178.814 192.234 179.019 187.5M11.4047 184.5C8.21489 188.146 5.50149 191.562 3.36711 194.5C0.762896 200.394 12.2486 204.597 30.3671 207.562M30.3671 207.562C49.2005 193.868 99.5671 165.583 150.367 161.99M73.8671 212.017C79.0338 202.132 106.067 180.325 172.867 172.176M172.867 172.176C175.282 173.371 177.462 174.488 179.367 175.5C179.322 178.816 179.212 183.058 179.019 187.5M122.867 213.944C127.469 205.629 145.141 188.7 179.019 187.5" stroke="#18D707" stroke-width="6"/>
<circle cx="182.5" cy="52.5" r="2.5" fill="#18D707"/>
<circle cx="254.5" cy="35.5" r="2.5" fill="#18D707"/>
</svg>
