<svg width="295" height="333" viewBox="0 0 295 333" fill="none" xmlns="http://www.w3.org/2000/svg">
<path d="M72.2611 279.327C69.9984 262.035 66.8307 226.689 72.2611 223.64M102.595 223.64C86.7562 225.052 48.291 222.539 21.1391 201.196C21.1391 202.255 21.1391 202.679 21.1391 195.903C21.1391 187.434 4.3813 48.1123 5.01768 43.8776C22.1573 64.8816 43.9778 76.0612 52.7457 79.0255C94.1523 73.9439 135.898 66.7449 151.596 63.7806L177.687 10M177.687 10C175.27 28.4454 184.394 52.3382 191.617 66.7449M177.687 10C191.942 32.698 192.913 57.2874 191.617 66.7449M191.617 66.7449C193.017 69.5371 194.346 71.9731 195.505 73.9439C196.557 81.2468 198.634 88.3923 201.254 95.1174C210.786 119.589 227.507 138.494 228.172 139.158C225.372 181.706 205.433 203.957 185.535 215.563M142.898 228.087C143.983 228.195 164.736 227.695 185.535 215.563M185.535 215.563C188.962 223.243 195.125 239.478 200.258 259M140.777 259L151.383 285.89M129.323 285.89V259M200.258 259C202.961 269.284 205.379 280.481 206.96 291.819L208.021 300.494M200.258 259C220.24 254.342 264.403 251.124 281.203 275.515C298.004 299.907 286.931 329.578 279.294 341.365C267.91 353.716 230.888 379.308 173.869 382.865C116.85 386.422 67.9479 371.643 50.6244 363.809C37.7556 360.139 14.6057 343.948 24.9574 308.546C35.3091 273.144 98.8473 281.373 129.323 289.913C145.164 296.33 179.036 305.444 208.021 300.494M227.112 294.571C221.202 297.441 214.743 299.346 208.021 300.494M195.93 272.551C195.505 274.81 194.275 279.708 192.748 281.232M69.9277 207.972C54.7255 201.902 28.3514 177.821 44.4728 130.054C69.758 113.623 95.4533 128.289 105.14 137.676C111.419 141.233 117.656 134.782 119.989 131.112C125.589 111.294 141.838 107.045 149.262 107.398C169.456 107.398 181.01 118.267 184.263 123.702C186.714 128.854 191.617 144.113 191.617 163.931C191.617 188.704 159.232 189.551 158.171 189.551C131.415 170.58 117.608 166.684 114.05 167.107C113.625 167.107 109.171 170.707 105.565 173.459C103.88 177.764 100.122 187.01 98.5645 189.551C89.231 206.151 75.5844 208.748 69.9277 207.972Z" stroke="#18D707" stroke-width="9"/>
<ellipse cx="78.2857" cy="160.643" rx="23.2653" ry="22.6837" fill="#18D707"/>
<circle cx="153.316" cy="144.357" r="22.6837" fill="#18D707"/>
<circle cx="81.7755" cy="151.918" r="6.47959" fill="white" stroke="#18D707"/>
<circle cx="157.388" cy="133.306" r="6.47959" fill="white" stroke="#18D707"/>
<path d="M73 286.408C80.8261 311.466 91.7826 363.481 73 371.078M160.652 299.86C169 320.171 180.687 364.114 160.652 377.408M215.435 299.86C219.609 311.466 248.93 354.619 289 326.765" stroke="#18D707" stroke-width="16"/>
<path d="M120 212.881C125.602 212.811 137.384 210.335 139.694 201" stroke="#18D707" stroke-width="16" stroke-linecap="round"/>
</svg>
